# xmcd
#
# Track frame offsets: 
#        150
#        19336
#        42117
#        62508
#        81633
#        99633
#        117632
#        136757
#        159820
#        171070
#        184008
#        199758
#        221414
#        241630
#        254180
#        272179
#        285799
#        306333
#        326052
#        336381
#
# Disc length: 4774 seconds
#
# Revision: 1
# Processed by: cddbd v1.5.2PL0 Copyright (c) Steve Scherf et al.
# Submitted via: ExactAudioCopyFreeDBPlugin 1.0
#
DISCID=2512a414
DTITLE=Various Artist - Nature One  go wild - freak out [CD3)
DYEAR=2011
DGENRE=House
TTITLE0=Bingo Players - Cry (Just A Little)
TTITLE1=MYNC, Ron Carroll and Dan Castro - Don't Be Afraid
TTITLE2=Moby - The Day (Eddie Thoneick remix)
TTITLE3=Avicii and Sebastian Drums - Snus
TTITLE4=Alex Kenji and Federico Scavo - Get Funky
TTITLE5=Lexy and K-Paul - Gonna Fly Now
TTITLE6=Axwell - Heart Is King
TTITLE7=Michael Grey - Piece Of You
TTITLE8=Blacktron - 32 km (Stefano Noferini Vibe Mix)
TTITLE9=Mikael Weermets and Audible - Free feat. Max C (Dimitri Vangelis
TTITLE9=and Wyman Remix)
TTITLE10=Strobe and Danny Freakazoid - The Horizon (Federico Scavo Remix
TTITLE10=)
TTITLE11=Markus Gardeweg - Why Don't You Let Me Know (Remix)
TTITLE12=Arno Cost - Lise
TTITLE13=Citizen Kain - Jetlag (Da Fresh Remix)
TTITLE14=Tom Novy, Danny Freakazoid and Strobe - Underground People (Sum
TTITLE14=mer Edit)
TTITLE15=Kaiserdisco - Lurin
TTITLE16=Butch - Aerobic (Danny Serrano and Gonzales Remix)
TTITLE17=Niko Schwind - Back From The Bar feat. Channel X
TTITLE18=Dan Drastic and Matthias Tanzmann - Puddle Trouble
TTITLE19=David August - Moving Day
EXTD=YEAR: 2011
EXTT0=
EXTT1=
EXTT2=
EXTT3=
EXTT4=
EXTT5=
EXTT6=
EXTT7=
EXTT8=
EXTT9=
EXTT10=
EXTT11=
EXTT12=
EXTT13=
EXTT14=
EXTT15=
EXTT16=
EXTT17=
EXTT18=
EXTT19=
PLAYORDER=
